HIERARCHY
ROOT Hips
{
	OFFSET 0.000000 89.005402 0.000000
	CHANNELS 6 Xposition Yposition Zposition Xrotation Yrotation Zrotation
	JOINT Spine
	{
		OFFSET 0.116900 10.681000 0.373400
		CHANNELS 3 Xrotation Yrotation Zrotation
		JOINT Spine1
		{
			OFFSET 0.000000 13.840401 0.053500
			CHANNELS 3 Xrotation Yrotation Zrotation
			JOINT Spine2
			{
				OFFSET 0.000000 14.712700 -0.366200
				CHANNELS 3 Xrotation Yrotation Zrotation
				JOINT Neck
				{
					OFFSET 0.000000 35.415497 -3.314200
					CHANNELS 3 Xrotation Yrotation Zrotation
					JOINT Head
					{
						OFFSET 0.000000 16.899200 1.218300
						CHANNELS 3 Xrotation Yrotation Zrotation
						JOINT HeadTop_End
						{
							OFFSET 0.000000 22.206207 2.192500
							CHANNELS 3 Xrotation Yrotation Zrotation
							End Site
							{
								OFFSET 0.000000 22.314178 0.000000
							}
						}
					}
				}
				JOINT LeftShoulder
				{
					OFFSET 12.896400 26.716293 -4.548400
					CHANNELS 3 Xrotation Yrotation Zrotation
					JOINT LeftArm
					{
						OFFSET 19.027000 -4.857010 -1.718400
						CHANNELS 3 Xrotation Yrotation Zrotation
						JOINT LeftForeArm
						{
							OFFSET 24.179897 0.000000 0.000000
							CHANNELS 3 Xrotation Yrotation Zrotation
							JOINT LeftHand
							{
								OFFSET 27.156403 0.000000 0.000000
								CHANNELS 3 Xrotation Yrotation Zrotation
								JOINT LeftHandIndex1
								{
									OFFSET 16.441200 0.000000 0.000000
									CHANNELS 3 Xrotation Yrotation Zrotation
									JOINT LeftHandIndex2
									{
										OFFSET 4.821899 0.000000 0.000000
										CHANNELS 3 Xrotation Yrotation Zrotation
										JOINT LeftHandIndex3
										{
											OFFSET 6.386497 0.000000 0.000000
											CHANNELS 3 Xrotation Yrotation Zrotation
											JOINT LeftHandIndex4
											{
												OFFSET 5.188988 0.000000 0.000000
												CHANNELS 3 Xrotation Yrotation Zrotation
												End Site
												{
													OFFSET -0.178703 5.185913 0.000177
												}
											}
										}
									}
								}
								JOINT LeftHandThumb1
								{
									OFFSET 6.534897 -5.032593 5.900300
									CHANNELS 3 Xrotation Yrotation Zrotation
									JOINT LeftHandThumb2
									{
										OFFSET 3.818176 -2.204422 2.204423
										CHANNELS 3 Xrotation Yrotation Zrotation
										JOINT LeftHandThumb3
										{
											OFFSET 3.252098 -1.877594 1.877601
											CHANNELS 3 Xrotation Yrotation Zrotation
											JOINT LeftHandThumb4
											{
												OFFSET 5.251778 -3.032120 3.032117
												CHANNELS 3 Xrotation Yrotation Zrotation
												End Site
												{
													OFFSET 0.000023 6.780014 0.000000
												}
											}
										}
									}
								}
							}
						}
					}
				}
				JOINT RightShoulder
				{
					OFFSET -12.896300 26.716293 -4.548400
					CHANNELS 3 Xrotation Yrotation Zrotation
					JOINT RightArm
					{
						OFFSET -19.027000 -4.857010 -1.718400
						CHANNELS 3 Xrotation Yrotation Zrotation
						JOINT RightForeArm
						{
							OFFSET -24.179897 0.000000 0.000000
							CHANNELS 3 Xrotation Yrotation Zrotation
							JOINT RightHand
							{
								OFFSET -27.156403 0.000000 0.000000
								CHANNELS 3 Xrotation Yrotation Zrotation
								JOINT RightHandThumb1
								{
									OFFSET -6.591202 -4.852203 5.988100
									CHANNELS 3 Xrotation Yrotation Zrotation
									JOINT RightHandThumb2
									{
										OFFSET -3.818176 -2.204422 2.204423
										CHANNELS 3 Xrotation Yrotation Zrotation
										JOINT RightHandThumb3
										{
											OFFSET -3.252098 -1.877594 1.877601
											CHANNELS 3 Xrotation Yrotation Zrotation
											JOINT RightHandThumb4
											{
												OFFSET -5.251778 -3.032120 3.032117
												CHANNELS 3 Xrotation Yrotation Zrotation
												End Site
												{
													OFFSET -0.000023 6.780014 0.000000
												}
											}
										}
									}
								}
								JOINT RightHandIndex1
								{
									OFFSET -16.029404 0.000000 0.000000
									CHANNELS 3 Xrotation Yrotation Zrotation
									JOINT RightHandIndex2
									{
										OFFSET -5.213303 0.000000 0.000000
										CHANNELS 3 Xrotation Yrotation Zrotation
										JOINT RightHandIndex3
										{
											OFFSET -6.386528 0.000000 0.000000
											CHANNELS 3 Xrotation Yrotation Zrotation
											JOINT RightHandIndex4
											{
												OFFSET -5.189026 0.000000 0.000000
												CHANNELS 3 Xrotation Yrotation Zrotation
												End Site
												{
													OFFSET 0.236702 5.183624 0.001972
												}
											}
										}
									}
								}
							}
						}
					}
				}
			}
		}
	}
	JOINT LeftUpLeg
	{
		OFFSET 14.073000 -7.904099 -1.463000
		CHANNELS 3 Xrotation Yrotation Zrotation
		JOINT LeftLeg
		{
			OFFSET -0.109806 -34.073280 4.093200
			CHANNELS 3 Xrotation Yrotation Zrotation
			JOINT LeftFoot
			{
				OFFSET 0.109806 -29.899420 -6.319000
				CHANNELS 3 Xrotation Yrotation Zrotation
				JOINT LeftToeBase
				{
					OFFSET 1.551100 -14.988700 20.535801
					CHANNELS 3 Xrotation Yrotation Zrotation
					JOINT LeftToe_End
					{
						OFFSET 0.221200 0.570800 13.248301
						CHANNELS 3 Xrotation Yrotation Zrotation
						End Site
						{
							OFFSET 0.000000 13.262435 0.000000
						}
					}
				}
			}
		}
	}
	JOINT RightUpLeg
	{
		OFFSET -13.839300 -7.904099 -1.463000
		CHANNELS 3 Xrotation Yrotation Zrotation
		JOINT RightLeg
		{
			OFFSET 0.109694 -34.073219 4.093300
			CHANNELS 3 Xrotation Yrotation Zrotation
			JOINT RightFoot
			{
				OFFSET -0.109694 -29.899384 -6.319200
				CHANNELS 3 Xrotation Yrotation Zrotation
				JOINT RightToeBase
				{
					OFFSET -1.551100 -14.988700 20.535801
					CHANNELS 3 Xrotation Yrotation Zrotation
					JOINT RightToe_End
					{
						OFFSET -0.221200 0.570900 13.248299
						CHANNELS 3 Xrotation Yrotation Zrotation
						End Site
						{
							OFFSET 0.000000 13.262440 0.000000
						}
					}
				}
			}
		}
	}
}
MOTION
Frames: 4
Frame Time: 0.033333
14.200035 53.971676 4.330650 -58.621171 23.568218 -5.463082 2.320987 -1.817890 -0.326083 4.648509 -1.379515 -0.248611 4.648522 -1.379523 -0.248600 -1.334494 1.544700 4.123077 16.888010 45.449875 -20.811972 -0.000003 -0.000001 -0.000001 -1.839347 -0.251172 54.038930 -72.389835 10.281251 -21.012213 0.000586 -97.351957 0.000570 -73.911991 -26.099449 -19.189939 0.057586 0.969071 -4.855874 0.337639 2.133687 -17.982401 0.020980 0.538238 -4.464672 -0.000001 -0.000001 -0.000000 -1.704010 4.571681 7.078898 3.939055 7.948709 0.746810 -0.579474 1.574999 2.538717 -0.000001 -0.000001 0.000003 1.006498 4.744004 -8.120291 -92.110661 -10.133959 68.977274 0.000037 118.263332 -0.000034 -22.848822 10.054379 0.054284 -1.853796 -3.573668 -6.569523 4.637198 -8.634131 -0.225386 -1.273757 0.137298 -2.094878 0.000002 0.000001 0.000001 0.147356 -1.426835 11.880913 0.447478 -2.458539 20.628793 0.149144 -1.435308 11.864643 -0.000000 0.000000 -0.000003 -25.314083 -20.200841 36.426024 104.762070 2.594725 -5.370257 -22.882136 31.450750 9.391412 2.670869 0.108545 -3.053314 -0.000000 0.000000 -0.000001 -80.495316 22.097621 -32.684108 53.325981 3.103830 1.647263 44.762850 9.501928 9.289346 10.006494 -0.000005 0.000002 -0.000000 -0.000000 -0.000001 
12.162113 48.887592 3.325836 -62.520369 21.911033 -4.055986 1.648297 -2.172660 -0.566777 3.341588 -2.031428 0.387265 3.341567 -2.031422 0.387262 -0.226651 1.475083 4.343159 18.440640 46.296398 -23.764100 -0.000003 0.000001 0.000000 -2.339936 0.575312 52.858578 -73.376818 21.509237 -31.512389 0.000000 -99.115430 0.000012 -61.102476 -16.770059 -23.972120 0.088318 1.303888 -5.010780 0.339515 2.139420 -18.032439 0.021450 0.544191 -4.514130 -0.000004 0.000001 0.000001 -1.101613 1.662842 2.078628 3.939035 7.948718 0.746815 -0.579487 1.575003 2.538720 -0.000001 -0.000001 0.000000 1.156589 5.680519 -8.535229 -87.190008 -7.661044 72.338773 -0.000035 112.734533 0.000031 -23.827590 9.474824 2.123675 -1.837861 -3.602065 -6.631016 4.637184 -8.634127 -0.225414 -1.273756 0.137313 -2.094866 -0.000000 -0.000000 0.000000 0.153593 -1.456554 11.820634 0.447488 -2.458509 20.628776 0.149152 -1.435303 11.864648 0.000001 0.000000 0.000003 -27.187139 -27.477501 34.670023 108.134797 -1.508105 -6.209775 -15.799271 31.749311 4.639493 2.020739 0.060445 -2.284951 -0.000000 -0.000001 0.000000 -73.795174 28.272144 -30.822520 69.584991 4.573607 2.660623 44.074668 9.564247 11.847700 11.742441 -0.000004 -0.000009 -0.000003 0.000001 0.000002 
9.279017 43.825970 1.028091 -66.589666 18.074306 -2.954026 1.244687 -2.093022 -1.296104 2.576131 -2.073917 0.441286 2.576136 -2.073917 0.441286 0.513823 1.376028 4.597421 19.297940 46.837957 -24.405179 -0.000001 -0.000002 0.000001 -3.034112 2.456366 45.907354 -74.989951 21.060794 -35.205254 0.000038 -104.077528 0.000046 -47.633978 -8.221015 -24.299450 0.107245 1.487573 -5.176940 0.341529 2.145545 -18.085953 0.021950 0.550556 -4.567096 -0.000001 0.000000 -0.000000 -2.057194 -10.161195 0.311922 3.939063 7.948707 0.746805 -0.579469 1.575002 2.538717 0.000001 0.000002 0.000002 0.933065 4.456222 -7.249390 -82.963104 -4.009744 75.492127 0.000147 108.165123 -0.000155 -25.859093 14.273034 7.615607 -1.860212 -3.562477 -6.534909 4.637183 -8.634128 -0.225414 -1.273752 0.137315 -2.094863 -0.000002 -0.000001 -0.000000 0.144821 -1.414780 11.915020 0.447494 -2.458511 20.628768 0.149140 -1.435314 11.864647 0.000000 -0.000001 -0.000000 -28.537306 -28.584673 38.944099 110.646510 -4.360530 -7.009336 -11.975289 31.633878 2.872015 0.167475 0.003595 -0.187940 -0.000000 -0.000000 0.000000 -65.092386 33.022356 -26.276629 84.280723 6.189392 3.642011 45.833882 8.031941 14.727230 13.847965 0.000009 -0.000002 -0.000000 0.000002 0.000001 
6.243618 37.748413 -1.582924 -70.352355 14.109587 -1.586736 0.627927 -1.250662 -2.242181 1.313413 -1.202449 -0.698311 1.313375 -1.202438 -0.698319 1.614906 1.175628 4.609313 19.794643 45.146929 -22.714486 -0.000001 0.000000 -0.000001 -2.391615 2.553772 37.894385 -71.839984 1.017967 -38.725120 0.000050 -105.727777 0.000052 -40.746638 -0.474023 -18.886593 0.115563 1.547680 -5.351101 0.343649 2.152060 -18.142816 0.022493 0.557331 -4.623456 -0.000000 -0.000001 -0.000000 -0.970190 -16.115111 9.905955 3.939063 7.948705 0.746788 -0.579458 1.574995 2.538718 0.000001 0.000001 0.000001 0.428234 1.060689 -5.517451 -76.672302 -5.857196 76.933072 0.000173 105.293500 -0.000183 -25.129746 23.262651 14.411446 -1.880538 -3.525603 -6.491885 4.637187 -8.634133 -0.225405 -1.273759 0.137298 -2.094869 0.000000 -0.000001 -0.000001 0.136863 -1.377342 11.956558 0.447490 -2.458518 20.628790 0.149152 -1.435305 11.864641 -0.000001 -0.000000 -0.000001 -37.575992 -28.778094 40.595277 109.379858 -13.009880 -7.211695 -1.703194 31.133973 8.651860 0.622283 -0.000002 0.000034 -0.000000 0.000002 -0.000000 -51.078808 41.462062 -23.753400 98.646667 10.872468 5.123029 43.344722 8.314227 26.900598 25.254163 0.000006 -0.000002 0.000001 -0.000001 -0.000001 
